# xmcd CD Database Entry
#
# Track frame offsets:
# 150
# 34485
# 59395
# 80620
# 99960
# 114130
# 131302
# 148112
# 185560
# 226920
# 256095
# 274135
# 280460
# 302537
#
# Disc length: 4310 seconds
#
# Revision: 2
# Processed by: cddbd v1.4b41PL1 Copyright (c) Steve Scherf et al.
# Submitted via: tcd 2.0b
#
DISCID=bf10d40e
DTITLE=Gilles Peterson - The Sound of Gilles Peterson
DYEAR=1900
DGENRE=
TTITLE0=I Can See The Future (Ski'sa Main Mix)
TTITLE1=I Am The Black Gold Of The Sun (4 Hero Remix)
TTITLE2=I See
TTITLE3=River Man
TTITLE4=Les Fluer
TTITLE5=The Truth
TTITLE6=Your Revolution
TTITLE7=Rejoice
TTITLE8=Flower (The Underwater Garden Dub)
TTITLE9=Messages (Main Mix)
TTITLE10=Skindo Le Le
TTITLE11=See The Light
TTITLE12=Let The Sun Shine In
TTITLE13=Spread Love
EXTD=
EXTT0=
EXTT1=
EXTT2=
EXTT3=
EXTT4=
EXTT5=
EXTT6=
EXTT7=
EXTT8=
EXTT9=
EXTT10=
EXTT11=
EXTT12=
EXTT13=
PLAYORDER=
